<svg xmlns="http://www.w3.org/2000/svg" version="1.1" xmlns:xlink="http://www.w3.org/1999/xlink" xmlns:svgjs="http://svgjs.com/svgjs" width="512" height="512" x="0" y="0" viewBox="0 0 60 60" style="enable-background:new 0 0 512 512" xml:space="preserve" class=""><g><path fill="#ffffff" d="M30.638 59.454a.5.5 0 0 1-.271-.921l7.658-4.918-9.881 5.7a.5.5 0 0 1-.516-.856l5.944-3.729-7.547 4.357a.5.5 0 0 1-.512-.859l1.94-1.2L24.4 58.8a.5.5 0 0 1-.516-.857l10.225-6.4-11.727 6.77a.5.5 0 0 1-.678-.173.5.5 0 0 1 .16-.682L37.683 47.44 20.117 57.581a.5.5 0 0 1-.515-.856l15.463-9.688L18.2 56.775a.5.5 0 0 1-.511-.859l8.575-5.256-9.434 5.445a.5.5 0 0 1-.511-.859l8.206-5.015-8.959 5.169a.5.5 0 0 1-.514-.856l18.457-11.5-19.6 11.313a.5.5 0 0 1-.51-.86l7.149-4.344-7.7 4.445a.5.5 0 0 1-.511-.86l10.446-6.371-11.024 6.365a.5.5 0 0 1-.51-.859l10.825-6.6-11.352 6.556a.5.5 0 0 1-.508-.861l1.83-1.1-2.107 1.213a.5.5 0 0 1-.508-.86l6.756-4.09-7.085 4.09a.5.5 0 0 1-.509-.861l8.038-4.87-8.346 4.819a.5.5 0 0 1-.51-.861l10.878-6.611L7.456 48.3a.5.5 0 0 1-.512-.859l17.668-10.85L6.518 47.038a.5.5 0 0 1-.509-.86l7.264-4.394-7.41 4.279a.5.5 0 0 1-.511-.859l18.834-11.588L5.027 44.678a.5.5 0 0 1-.512-.859l20.628-12.741L4.221 43.157a.5.5 0 0 1-.515-.856l23.97-14.949-24.258 14a.5.5 0 0 1-.513-.858l19.164-11.811L2.833 39.789a.5.5 0 0 1-.509-.86l8.276-5.015-8.139 4.7a.5.5 0 0 1-.513-.858l19.146-11.835L2.021 36.932a.5.5 0 0 1-.514-.858l21.37-13.318L1.644 35.014a.5.5 0 0 1-.514-.858l18.743-11.633-18.46 10.658a.5.5 0 0 1-.513-.856l21.72-13.679L1.293 30.959a.5.5 0 0 1-.512-.859l11.274-6.926L1.3 29.382a.5.5 0 0 1-.515-.857L17.1 18.335 1.446 27.373a.5.5 0 0 1-.512-.858l9.789-6.038L1.671 25.7a.5.5 0 0 1-.515-.856l11.982-7.473-11.085 6.4a.5.5 0 0 1-.517-.855l12.607-7.948L2.652 21.6a.5.5 0 0 1-.52-.853l13.839-8.926-12.314 7.113a.5.5 0 0 1-.524-.851l12.213-8.033-10.163 5.867a.5.5 0 0 1-.516-.856l1.425-.895a.59.59 0 0 1-.441-.235.5.5 0 0 1 .145-.679l5.867-3.958-2.835 1.637a.5.5 0 0 1-.537-.842l3.792-2.661a.5.5 0 0 1 .037-.842l6.592-3.806a.5.5 0 0 1 .537.842L18.14 4.4l5.432-3.136a.5.5 0 0 1 .53.846l-5.858 3.953L27.552.688a.5.5 0 0 1 .515.857l-.114.071L29.717.6a.5.5 0 0 1 .524.85l-12.21 8.03L33.077.794a.5.5 0 0 1 .521.852l-13.842 8.927L35.9 1.256a.5.5 0 0 1 .516.855l-12.6 7.948 14.271-8.24a.5.5 0 0 1 .515.857L26.6 10.154l13.352-7.707a.5.5 0 0 1 .513.859l-9.777 6.03 10.818-6.245a.5.5 0 0 1 .515.856l-16.312 10.19L43.318 3.971a.5.5 0 0 1 .512.858l-11.27 6.924 12.134-7.006a.5.5 0 0 1 .517.856L23.487 19.282 46.545 5.97a.5.5 0 0 1 .514.857l-18.754 11.64 19.712-11.38a.5.5 0 0 1 .514.857l-21.36 13.314L49.489 8.372A.5.5 0 0 1 50 9.23L30.855 21.063 50.722 9.594a.5.5 0 0 1 .508.86l-8.255 5 8.58-4.953a.5.5 0 0 1 .512.858L32.888 23.188 52.62 11.8a.5.5 0 0 1 .515.856L29.17 27.6l24.614-14.212a.5.5 0 0 1 .513.858l-20.62 12.736L54.7 14.846a.5.5 0 0 1 .512.858L36.362 27.3l19.119-11.038a.5.5 0 0 1 .509.86l-7.261 4.392 7.271-4.2a.5.5 0 0 1 .512.859l-17.66 10.848 17.775-10.263a.5.5 0 0 1 .51.86l-10.891 6.618 10.842-6.258a.5.5 0 0 1 .509.86l-8.012 4.854 7.886-4.552a.5.5 0 0 1 .508.86l-6.791 4.111L57.8 22.3a.5.5 0 0 1 .508.861l-1.826 1.1 1.564-.9a.5.5 0 0 1 .51.859L47.753 30.8l10.553-6.1a.5.5 0 0 1 .51.859l-10.473 6.392L58.5 26.085a.5.5 0 0 1 .51.86l-7.135 4.336 6.751-3.9a.5.5 0 0 1 .515.857l-18.453 11.5 18.022-10.4a.5.5 0 0 1 .511.859l-8.188 5 7.655-4.42a.5.5 0 0 1 .512.86l-8.6 5.269 7.991-4.606a.5.5 0 0 1 .515.856l-15.461 9.687 14.672-8.471a.5.5 0 0 1 .518.856l-15.822 10.02 14.817-8.555a.5.5 0 0 1 .516.857l-10.228 6.4 9.137-5.274a.5.5 0 0 1 .513.858l-1.957 1.2.874-.5a.5.5 0 0 1 .515.857l-5.931 3.72 4.569-2.637a.5.5 0 0 1 .52.853l-7.664 4.922 5.836-3.369a.5.5 0 0 1 .532.846l-8.673 5.9 5.663-3.269a.5.5 0 0 1 .541.839L48.265 52a.5.5 0 0 1 .231.933L40.585 57.5a.5.5 0 0 1-.541-.839l3.7-2.649-8.625 4.978a.5.5 0 0 1-.531-.845l8.668-5.894-12.368 7.136a.494.494 0 0 1-.25.067z" data-original="#34b1c6" class=""></path><path fill="#727272" d="M21.371 48.151a.5.5 0 0 1-.287-.909l8.588-6.042-9.284 5.36a.5.5 0 0 1-.521-.853l6.287-4.047-5.7 3.292a.5.5 0 0 1-.528-.848L31 36.682l-3.413 1.969a.5.5 0 0 1-.534-.843l7.181-4.971a.5.5 0 0 1-.145-.83l3.2-2.941-.788.455a.5.5 0 0 1-.593-.8l.639-.6-1.028.593a.5.5 0 0 1-.61-.779l1.1-1.147-1.666.962a.5.5 0 0 1-.62-.771L35 25.6l-1.92 1.108a.5.5 0 0 1-.638-.748l1.512-1.86-2.382 1.37a.5.5 0 0 1-.58-.809l.075-.065-.329.189a.5.5 0 0 1-.595-.794l.731-.7-1.148.662a.5.5 0 0 1-.638-.749l1.512-1.851-2.372 1.369a.5.5 0 0 1-.6-.787l.92-.914-1.4.809a.5.5 0 0 1-.615-.775l1.189-1.266-1.8 1.037a.5.5 0 0 1-.612-.777l1.146-1.206-1.731 1a.5.5 0 0 1-.625-.764l1.36-1.539-2.078 1.2a.5.5 0 0 1-.646-.74l1.555-1.971-2.476 1.429a.5.5 0 0 1-.6-.788l.9-.9-1.31.757a.5.5 0 0 1-.62-.768l1.215-1.334-1.113.642a.5.5 0 0 1-.62-.768l.627-.691a.49.49 0 0 1-.246-.213.5.5 0 0 1 .182-.683l1.914-1.105a.5.5 0 0 1 .62.769l-.2.225 1.117-.645a.5.5 0 0 1 .62.769l-1.214 1.336 1.886-1.089a.5.5 0 0 1 .6.788l-.9.895 1.38-.8a.5.5 0 0 1 .642.743l-1.554 1.971 2.476-1.429a.5.5 0 0 1 .625.763l-1.359 1.538 2.076-1.2a.5.5 0 0 1 .612.777l-1.146 1.206 1.731-1a.5.5 0 0 1 .615.776l-1.19 1.266 1.8-1.038a.5.5 0 0 1 .6.788l-.92.914 1.4-.81a.5.5 0 0 1 .631.108.5.5 0 0 1 .007.641l-1.511 1.852 2.372-1.37a.5.5 0 0 1 .6.794l-.73.7 1.146-.662a.5.5 0 0 1 .58.809l-.077.067.332-.191a.5.5 0 0 1 .637.748l-1.514 1.863 2.382-1.375a.5.5 0 0 1 .619.771l-1.267 1.383 1.92-1.109a.5.5 0 0 1 .61.78l-1.1 1.146 1.666-.962a.5.5 0 0 1 .593.8l-.639.6 1.027-.593a.5.5 0 0 1 .588.8l-3.2 2.939 4.211-2.431a.5.5 0 0 1 .534.844l-5.206 3.6 5.747-3.318a.5.5 0 0 1 .529.848L32.86 36.638l10.685-6.169a.5.5 0 0 1 .52.852l-6.28 4.044 1.1-.632a.5.5 0 0 1 .537.842l-9.392 6.6a.5.5 0 0 1 .212.931l-8.616 4.975a.491.491 0 0 1-.255.07z" data-original="#ffffff" class=""></path><g fill="#262626"><path d="M35.787 58.853c28.878-5.245 32.292-47.094 4.382-56.6-48.648-13.185-54.76 62.734-4.382 56.6zM5.668 15.355C19.747-9.412 58.728 1.91 58.272 30.08 54.5 78.535-15.468 58.432 5.668 15.355z" fill="#727272" data-original="#262626" class=""></path><path d="M21.549 17.877 36.465 30.13c-5.29 4.342-10.644 8.617-15.869 13.037A2.834 2.834 0 0 0 22 48.339c5.647-1.2 9.534-7.181 14.349-10.284 2.577-2.8 7.362-4.448 8.373-8.249C41 23.57 33.057 19.905 27.818 14.671c-4.567-6.017-12.449-1.36-6.269 3.206zM23.6 12.87C46.814 33.634 50.905 25.063 25 46.238a2.249 2.249 0 1 1-3.476-2.706c5.323-4.656 11.6-8.981 16.46-13.806-5.475-4.641-11.245-9-16.635-13.695-1.441-1.6.051-4.752 2.251-3.161z" fill="#727272" data-original="#262626" class=""></path></g></g></svg>